<svg viewBox="0 0 459 314" xmlns="http://www.w3.org/2000/svg"><path style="stroke-width:11px;stroke:rgba(236,236,236,.18)" d="M407.136 55.906v199.783M66.799 57.631v199.784"/><path fill="#ddd" d="M123.421 180.085v10.93c0 8.947-2.983 15.627-8.95 20.04-2.867 2.1-5.82 3.73-8.86 4.89-3.033 1.16-5.987 1.74-8.86 1.74h-36.1c-2.867 0-5.82-.58-8.86-1.74-3.033-1.16-5.987-2.79-8.86-4.89a22.242 22.242 0 0 1-6.62-8.2c-1.547-3.253-2.32-7.2-2.32-11.84v-78.66c0-4.413.773-8.303 2.32-11.67 1.547-3.367 3.753-6.1 6.62-8.2h-.16a49.093 49.093 0 0 1 8.94-4.63c3.093-1.22 6.073-1.83 8.94-1.83h36.1c2.873 0 5.857.61 8.95 1.83a49.486 49.486 0 0 1 8.94 4.63h-.17c2.873 2.1 5.083 4.833 6.63 8.2 1.547 3.367 2.32 7.257 2.32 11.67v11.43c0 5.3-3.313 7.95-9.94 7.95-6.513 0-9.77-2.65-9.77-7.95v-9.94c0-2.76-.827-5.297-2.48-7.61-1.66-2.32-4.533-3.48-8.62-3.48h-27.82c-4.08 0-6.95 1.16-8.61 3.48-1.653 2.313-2.48 4.85-2.48 7.61v75.85c0 2.867.827 5.46 2.48 7.78 1.66 2.32 4.53 3.48 8.61 3.48h27.82c4.087 0 6.96-1.16 8.62-3.48 1.653-2.32 2.48-4.913 2.48-7.78v-9.61c0-5.187 3.257-7.78 9.77-7.78 6.627 0 9.94 2.593 9.94 7.78zm68.216-77.33v108.14c0 5.293-3.31 7.94-9.93 7.94-6.513 0-9.77-2.647-9.77-7.94v-108.14h-28.98c-3.973 0-6.073-2.817-6.3-8.45 0-5.52 2.1-8.28 6.3-8.28h77.66c4.2 0 6.187 2.76 5.96 8.28 0 5.633-1.986 8.45-5.96 8.45h-28.98zm127.842 112.77-31.3-52.49h-12.75c-1.873 0-3.337-.747-4.39-2.24-1.047-1.487-1.57-3.5-1.57-6.04 0-5.633 2.32-8.45 6.96-8.45h19.37c4.087 0 6.957-1.16 8.61-3.48 1.66-2.313 2.49-4.85 2.49-7.61v-21.37c0-2.76-.83-5.297-2.49-7.61-1.653-2.32-4.523-3.48-8.61-3.48h-34.94v107.97c0 5.3-3.257 7.95-9.77 7.95s-9.77-2.65-9.77-7.95V95.965c0-3.973 1.02-6.623 3.06-7.95 2.047-1.327 4.503-1.99 7.37-1.99h48.19c2.873 0 5.853.61 8.94 1.83a49.372 49.372 0 0 1 8.95 4.63h-.17c2.873 2.1 5.08 4.833 6.62 8.2 1.547 3.367 2.32 7.257 2.32 11.67v24.18c0 8.947-2.98 15.627-8.94 20.04a39.439 39.439 0 0 1-3.89 2.48c-1.38.773-2.787 1.547-4.22 2.32l26.49 43.72c.333.553.663 1.27.99 2.15.333.887.5 1.607.5 2.16 0 2.647-1.877 5.183-5.63 7.61v-.16c-2.54 1.547-4.693 2.32-6.46 2.32-2.54 0-4.58-1.27-6.12-3.81l.16.16zm108.3 2.16h-64.42c-4.086 0-6.846-1.05-8.28-3.15-1.433-2.1-2.15-4.42-2.15-6.96V93.145c0-5.293 3.2-7.94 9.6-7.94 6.627 0 9.94 2.647 9.94 7.94v107.81h55.31c3.974 0 5.96 2.703 5.96 8.11.22 5.747-1.766 8.62-5.96 8.62z" style="paint-order:stroke;white-space:pre"/><path style="stroke-width:13px;stroke-miterlimit:6;stroke:#ddd;fill:none;stroke-linecap:round;stroke-linejoin:round" d="M66.98 66.976V25.395h340v42.843"/><path style="stroke-width:13px;stroke-miterlimit:6;stroke:#ddd;fill:none;stroke-linejoin:round;stroke-linecap:round" transform="rotate(180 236.98 264.246)" d="M66.98 284.406v-41.581h340v42.843"/></svg>